<svg width="60" height="40" viewBox="0 0 60 40" fill="none" xmlns="http://www.w3.org/2000/svg">
<g clip-path="url(#clip0_506_1875)">
<path d="M56 40.0001H4C2.93913 40.0001 1.92172 39.5787 1.17157 38.8285C0.421427 38.0784 0 37.0609 0 36.0001L0 19.1734H2.88167L3.53167 17.6001H4.98667L5.635 19.1668H11.305V17.9751L11.8117 19.1751H14.755L15.2617 17.9551V19.1718H29.35V16.5984H29.6167C29.8067 16.6051 29.8617 16.6218 29.8617 16.9384V19.1751H37.15V18.5768C37.895 18.9551 38.7733 19.1768 39.705 19.1768L39.8633 19.1751H39.855H42.9217L43.5783 17.6084H45.0333L45.675 19.1751H51.585V17.6851L52.4783 19.1751H57.205V9.33508H52.5267V10.4968L51.8717 9.33508H47.0617V10.4968L46.46 9.33508H39.965C38.9809 9.28536 38.0005 9.48787 37.1167 9.92342L37.1517 9.90842V9.33508H32.6717V9.90842C32.1294 9.48101 31.4445 9.27655 30.7567 9.33675H30.7667H14.395L13.2967 11.8784L12.1683 9.33675H7.01167V10.4984L6.44333 9.33675H2.04333L0.005 14.0034V4.00342C0.005 2.94255 0.426427 1.92514 1.17657 1.17499C1.92672 0.424845 2.94413 0.00341797 4.005 0.00341797H56.005C57.0659 0.00341797 58.0833 0.424845 58.8334 1.17499C59.5836 1.92514 60.005 2.94255 60.005 4.00342V21.4701H56.8833C56.8333 21.4668 56.7733 21.4668 56.715 21.4668C55.9917 21.4668 55.32 21.6834 54.76 22.0551L54.7733 22.0468V21.4701H50.1567C49.4354 21.4302 48.7218 21.6352 48.1317 22.0518L48.1417 22.0451V21.4684H39.8983V22.0451C39.2235 21.6645 38.4614 21.4658 37.6867 21.4684H37.6217H37.625H32.1867V22.0451C31.4762 21.59 30.6331 21.3874 29.7933 21.4701L29.8083 21.4684H23.7233L22.33 22.9751L21.0267 21.4684H11.9367V31.3151H20.8567L22.2917 29.7851L23.6433 31.3151H29.1417V29.0101H29.9083C30.6455 29.0389 31.3807 28.9158 32.0683 28.6484L32.0317 28.6618V31.3184H36.565V28.7534H36.7833C37.06 28.7534 37.0883 28.7634 37.0883 29.0434V31.3201H50.865L51.0333 31.3234C51.8233 31.3234 52.56 31.0868 53.1733 30.6817L53.1583 30.6901V31.3201H57.5283L57.7367 31.3234C58.555 31.3234 59.3333 31.1551 60.04 30.8501L60.0017 30.8651V36.0017C60.0017 37.0626 59.5802 38.08 58.8301 38.8302C58.0799 39.5803 57.0625 40.0017 56.0017 40.0017L56 40.0001ZM35.175 29.9351H33.4783V22.8768H37.3717C38.0748 22.8116 38.7829 22.9299 39.4267 23.2201L39.4 23.2101C39.9217 23.4967 40.27 24.0434 40.27 24.6701L40.2667 24.7818V24.7768L40.2683 24.8401C40.2683 25.6501 39.78 26.3468 39.08 26.6501L39.0667 26.6551C39.4017 26.7751 39.6817 26.9801 39.89 27.2451L39.8933 27.2484C40.1286 27.6379 40.2272 28.0949 40.1733 28.5467L40.175 28.5367V29.9334H38.4817V29.0501C38.5618 28.5691 38.4653 28.0754 38.21 27.6601L38.215 27.6684C38.0391 27.5349 37.8379 27.4384 37.6236 27.3848C37.4093 27.3313 37.1864 27.3217 36.9683 27.3567L36.9783 27.3551H35.175V29.9334V29.9351ZM35.175 24.3351V25.9201H37.225C37.5145 25.9468 37.8058 25.895 38.0683 25.7701L38.0583 25.7751C38.1656 25.7058 38.2538 25.6108 38.3149 25.4988C38.3761 25.3867 38.4082 25.2611 38.4083 25.1334L38.4067 25.0951C38.4149 24.9677 38.3869 24.8422 38.3258 24.7301C38.2648 24.618 38.1732 24.5256 38.0617 24.4634L38.0583 24.4618C37.8054 24.3486 37.5275 24.3027 37.2517 24.3284H37.2583L35.175 24.3351ZM20.1333 29.9334H13.455V22.8768H20.2383L22.3133 25.1901L24.4583 22.8768H29.8467C31.76 22.8768 32.69 23.6384 32.69 25.2018C32.69 26.7934 31.7283 27.5668 29.7567 27.5668H27.6483V29.9317H24.37L22.2933 27.6001L20.135 29.9334H20.1333ZM25.9683 23.6334L23.3783 26.4168L25.9683 29.2901V23.6334ZM15.1367 27.0584V28.4617H19.2833L21.2 26.3918L19.3567 24.3351H15.135V25.6184H18.8383V27.0567L15.1367 27.0584ZM27.6483 24.3368V26.1334H29.8267C30.4933 26.1334 30.8767 25.7934 30.8767 25.2001C30.8767 24.6334 30.52 24.3351 29.845 24.3351L27.6483 24.3368ZM57.7117 29.9367H54.455V28.4201H57.6983C57.941 28.4535 58.1871 28.3901 58.3833 28.2434L58.3817 28.2451C58.4443 28.187 58.4942 28.1166 58.5284 28.0383C58.5625 27.96 58.5801 27.8755 58.58 27.7901V27.7634C58.5801 27.6791 58.5619 27.5957 58.5264 27.5191C58.491 27.4425 58.4394 27.3746 58.375 27.3201C58.2025 27.1954 57.9898 27.1396 57.7783 27.1634H57.7817L57.47 27.1534C55.9467 27.1134 54.2217 27.0668 54.2217 24.9784C54.2217 23.9618 54.8583 22.8768 56.64 22.8768H60.0017V24.3801H56.9267C56.6891 24.3535 56.4492 24.4012 56.24 24.5168L56.2467 24.5134C56.1644 24.5676 56.0982 24.6429 56.0551 24.7315C56.012 24.82 55.9935 24.9186 56.0017 25.0168V25.0151V25.0334C56.0017 25.1457 56.0371 25.2552 56.1029 25.3461C56.1688 25.4371 56.2617 25.505 56.3683 25.5401L56.3717 25.5417C56.583 25.6069 56.8042 25.634 57.025 25.6218H57.02L57.935 25.6451C58.6247 25.5763 59.3138 25.7816 59.8533 26.2168L59.8483 26.2134C59.8983 26.2534 59.9417 26.2968 59.98 26.3451L59.9817 26.3468L60.0017 29.0334C59.7214 29.3609 59.3648 29.6145 58.9635 29.7717C58.5621 29.929 58.1282 29.9851 57.7 29.9351L57.7117 29.9367ZM51.13 29.9367H47.8433V28.4201H51.1133C51.358 28.4521 51.6057 28.3889 51.805 28.2434L51.8017 28.2451C51.8639 28.1868 51.9135 28.1163 51.9473 28.038C51.9811 27.9598 51.9985 27.8754 51.9983 27.7901V27.7734C51.9982 27.6876 51.9799 27.6029 51.9446 27.5247C51.9092 27.4465 51.8577 27.3768 51.7933 27.3201C51.6178 27.1953 51.4024 27.1395 51.1883 27.1634H51.1917L50.8817 27.1534C49.3633 27.1134 47.64 27.0668 47.64 24.9784C47.64 23.9618 48.2733 22.8768 50.0517 22.8768H53.4317V24.3801H50.3383C50.1024 24.3538 49.8642 24.4015 49.6567 24.5168L49.6633 24.5134C49.5758 24.5737 49.5061 24.6564 49.4617 24.753C49.4173 24.8496 49.3999 24.9563 49.4111 25.062C49.4224 25.1677 49.462 25.2684 49.5258 25.3534C49.5895 25.4384 49.675 25.5047 49.7733 25.5451L49.7767 25.5468C49.9907 25.6124 50.2148 25.6395 50.4383 25.6268H50.4333L51.3417 25.6501C52.035 25.5833 52.7272 25.7889 53.2717 26.2234L53.2667 26.2184C53.4498 26.4203 53.5891 26.658 53.6757 26.9165C53.7624 27.175 53.7945 27.4486 53.77 27.7201V27.7118C53.775 29.1834 52.8833 29.9334 51.125 29.9334L51.13 29.9367ZM46.8333 29.9367H41.2V22.8751H46.8283V24.3334H42.8833V25.6168H46.7367V27.0551H42.8833V28.4584L46.8333 28.4651V29.9317V29.9367ZM50.1167 17.7934H46.6817L46.025 16.2201H42.5217L41.885 17.7934H39.9117C39.0255 17.8401 38.1528 17.5609 37.4583 17.0084L37.4667 17.0134C37.1367 16.6493 36.8863 16.2204 36.7313 15.7541C36.5764 15.2878 36.5203 14.7943 36.5667 14.3051L36.565 14.3184C36.5221 13.8202 36.5809 13.3185 36.7379 12.8437C36.8949 12.369 37.1468 11.9311 37.4783 11.5568L37.475 11.5601C37.825 11.2541 38.2342 11.0233 38.6772 10.8823C39.1202 10.7412 39.5875 10.6928 40.05 10.7401L40.0367 10.7384H41.67V12.2434H40.07C39.8359 12.2133 39.598 12.2351 39.3733 12.3074C39.1486 12.3797 38.9426 12.5007 38.77 12.6618L38.7717 12.6601C38.4153 13.1164 38.2423 13.6895 38.2867 14.2668V14.2584C38.2336 14.8515 38.4002 15.4435 38.755 15.9218L38.75 15.9151C39.0813 16.1859 39.5054 16.3163 39.9317 16.2784H39.925H40.6817L43.0667 10.7284H45.6L48.455 17.3951V10.7284H51.0233L53.9867 15.6418V10.7284H55.72V17.7817H53.3133L50.1133 12.4851V17.7817L50.1167 17.7934ZM44.285 11.9301L43.1233 14.7434H45.4517L44.285 11.9301ZM27.9533 17.7901H26.2667V10.7334H30.1467C30.8549 10.6599 31.5699 10.7803 32.215 11.0818L32.19 11.0718C32.4494 11.2152 32.6656 11.4255 32.8163 11.6808C32.9669 11.936 33.0465 12.227 33.0467 12.5234L33.0433 12.6401V12.6351V12.6868C33.0435 13.0717 32.9325 13.4485 32.7238 13.7719C32.5151 14.0953 32.2175 14.3516 31.8667 14.5101L31.8533 14.5151C32.1883 14.6418 32.47 14.8451 32.685 15.1051L32.6883 15.1084C32.9261 15.4994 33.0243 15.9595 32.9667 16.4134L32.9683 16.4034V17.7884H31.2667L31.26 16.8984V16.7651C31.3206 16.3299 31.2243 15.8874 30.9883 15.5168L30.9933 15.5251C30.8168 15.3954 30.6163 15.302 30.4035 15.2502C30.1907 15.1984 29.9697 15.1893 29.7533 15.2234L29.7633 15.2218H27.955V17.7884L27.9533 17.7901ZM27.9533 12.2018V13.7684H30C30.2891 13.7998 30.5812 13.7477 30.8417 13.6184L30.8333 13.6218C30.9401 13.5569 31.0284 13.4656 31.0897 13.3567C31.151 13.2478 31.1832 13.125 31.1833 13.0001L31.1817 12.9534C31.1901 12.8268 31.1614 12.7021 31.0989 12.5916C31.0364 12.4811 30.9429 12.3914 30.83 12.3334L30.8267 12.3318C30.573 12.2229 30.2968 12.1772 30.0217 12.1984H30.0267L27.9533 12.2018ZM10.0933 17.7901H6.66667L6.01833 16.2168H2.505L1.85167 17.7901H0.0183333L3.04 10.7334H5.545L8.41333 17.4118V10.7334H11.165L13.3717 15.5184L15.4 10.7334H18.2083V17.7868H16.475L16.4717 12.2668L14.0267 17.7884H12.5467L10.095 12.2584V17.7884L10.0933 17.7901ZM4.25333 11.9301L3.105 14.7434H5.40833L4.25333 11.9301ZM35.7333 17.7884H34.0133V10.7334H35.735V17.7868L35.7333 17.7884ZM25.09 17.7884H19.4667V10.7334H25.1V12.2001H21.1533V13.4718H25.005V14.9201H21.15V16.3301H25.0967V17.7868L25.09 17.7884Z" fill="#344A5E"/>
</g>
<defs>
<clipPath id="clip0_506_1875">
<rect width="60" height="40" fill="white"/>
</clipPath>
</defs>
</svg>
