<svg width="45" height="30" viewBox="0 0 45 30" fill="none" xmlns="http://www.w3.org/2000/svg">
<g clip-path="url(#clip0_36_4124)">
<path d="M42 29.9999H3C2.20435 29.9999 1.44129 29.6839 0.87868 29.1213C0.316071 28.5586 0 27.7956 0 26.9999L0 14.3799H2.16125L2.64875 13.1999H3.74L4.22625 14.3749H8.47875V13.4812L8.85875 14.3812H11.0662L11.4462 13.4662V14.3787H22.0125V12.4487H22.2125C22.355 12.4537 22.3962 12.4662 22.3962 12.7037V14.3812H27.8625V13.9324C28.4213 14.2162 29.08 14.3824 29.7787 14.3824L29.8975 14.3812H29.8913H32.1912L32.6838 13.2062H33.775L34.2563 14.3812H38.6888V13.2637L39.3587 14.3812H42.9038V7.00119H39.395V7.87244L38.9037 7.00119H35.2962V7.87244L34.845 7.00119H29.9738C29.2357 6.96389 28.5004 7.11578 27.8375 7.44244L27.8638 7.43119V7.00119H24.5037V7.43119C24.097 7.11063 23.5834 6.95729 23.0675 7.00244H23.075H10.7963L9.9725 8.90869L9.12625 7.00244H5.25875V7.87369L4.8325 7.00244H1.5325L0.00375 10.5024V3.00244C0.00375 2.20679 0.31982 1.44373 0.88243 0.881121C1.44504 0.318512 2.2081 0.00244141 3.00375 0.00244141H42.0037C42.7994 0.00244141 43.5625 0.318512 44.1251 0.881121C44.6877 1.44373 45.0037 2.20679 45.0037 3.00244V16.1024H42.6625C42.625 16.0999 42.58 16.0999 42.5362 16.0999C41.9937 16.0999 41.49 16.2624 41.07 16.5412L41.08 16.5349V16.1024H37.6175C37.0766 16.0725 36.5414 16.2263 36.0988 16.5387L36.1063 16.5337V16.1012H29.9237V16.5337C29.4176 16.2483 28.846 16.0992 28.265 16.1012H28.2162H28.2188H24.14V16.5337C23.6071 16.1923 22.9748 16.0404 22.345 16.1024L22.3563 16.1012H17.7925L16.7475 17.2312L15.77 16.1012H8.9525V23.4862H15.6425L16.7188 22.3387L17.7325 23.4862H21.8563V21.7574H22.4312C22.9841 21.7791 23.5356 21.6867 24.0512 21.4862L24.0238 21.4962V23.4887H27.4237V21.5649H27.5875C27.795 21.5649 27.8162 21.5724 27.8162 21.7824V23.4899H38.1488L38.275 23.4924C38.8675 23.4924 39.42 23.3149 39.88 23.0112L39.8688 23.0174V23.4899H43.1462L43.3025 23.4924C43.9162 23.4924 44.5 23.3662 45.03 23.1374L45.0013 23.1487V27.0012C45.0013 27.7968 44.6852 28.5599 44.1226 29.1225C43.56 29.6851 42.7969 30.0012 42.0013 30.0012L42 29.9999ZM26.3812 22.4512H25.1087V17.1574H28.0288C28.5561 17.1086 29.0872 17.1973 29.57 17.4149L29.55 17.4074C29.9412 17.6224 30.2025 18.0324 30.2025 18.5024L30.2 18.5862V18.5824L30.2012 18.6299C30.2012 19.2374 29.835 19.7599 29.31 19.9874L29.3 19.9912C29.5513 20.0812 29.7612 20.2349 29.9175 20.4337L29.92 20.4362C30.0965 20.7283 30.1704 21.071 30.13 21.4099L30.1312 21.4024V22.4499H28.8613V21.7874C28.9214 21.4267 28.849 21.0565 28.6575 20.7449L28.6613 20.7512C28.5293 20.651 28.3784 20.5787 28.2177 20.5385C28.057 20.4983 27.8898 20.4912 27.7262 20.5174L27.7337 20.5162H26.3812V22.4499V22.4512ZM26.3812 18.2512V19.4399H27.9187C28.1359 19.46 28.3544 19.4211 28.5513 19.3274L28.5437 19.3312C28.6242 19.2792 28.6903 19.208 28.7362 19.1239C28.782 19.0399 28.8061 18.9457 28.8062 18.8499L28.805 18.8212C28.8112 18.7257 28.7902 18.6316 28.7444 18.5475C28.6986 18.4634 28.6299 18.394 28.5462 18.3474L28.5437 18.3462C28.354 18.2614 28.1457 18.2269 27.9387 18.2462H27.9437L26.3812 18.2512ZM15.1 22.4499H10.0912V17.1574H15.1787L16.735 18.8924L18.3438 17.1574H22.385C23.82 17.1574 24.5175 17.7287 24.5175 18.9012C24.5175 20.0949 23.7962 20.6749 22.3175 20.6749H20.7363V22.4487H18.2775L16.72 20.6999L15.1013 22.4499H15.1ZM19.4762 17.7249L17.5338 19.8124L19.4762 21.9674V17.7249ZM11.3525 20.2937V21.3462H14.4625L15.9 19.7937L14.5175 18.2512H11.3513V19.2137H14.1288V20.2924L11.3525 20.2937ZM20.7363 18.2524V19.5999H22.37C22.87 19.5999 23.1575 19.3449 23.1575 18.8999C23.1575 18.4749 22.89 18.2512 22.3837 18.2512L20.7363 18.2524ZM43.2837 22.4524H40.8413V21.3149H43.2738C43.4558 21.34 43.6403 21.2924 43.7875 21.1824L43.7862 21.1837C43.8332 21.1401 43.8707 21.0873 43.8963 21.0286C43.9219 20.9699 43.935 20.9065 43.935 20.8424V20.8224C43.9351 20.7592 43.9214 20.6966 43.8948 20.6392C43.8683 20.5818 43.8295 20.5308 43.7812 20.4899C43.6519 20.3964 43.4923 20.3546 43.3337 20.3724H43.3363L43.1025 20.3649C41.96 20.3349 40.6663 20.2999 40.6663 18.7337C40.6663 17.9712 41.1438 17.1574 42.48 17.1574H45.0013V18.2849H42.695C42.5169 18.265 42.3369 18.3008 42.18 18.3874L42.185 18.3849C42.1233 18.4256 42.0737 18.482 42.0413 18.5485C42.009 18.6149 41.9951 18.6888 42.0013 18.7624V18.7612V18.7749C42.0012 18.8592 42.0278 18.9412 42.0772 19.0095C42.1266 19.0777 42.1962 19.1286 42.2762 19.1549L42.2788 19.1562C42.4372 19.2051 42.6032 19.2254 42.7687 19.2162H42.765L43.4513 19.2337C43.9685 19.1821 44.4854 19.3361 44.89 19.6624L44.8862 19.6599C44.9238 19.6899 44.9562 19.7224 44.985 19.7587L44.9862 19.7599L45.0013 21.7749C44.791 22.0206 44.5236 22.2107 44.2226 22.3287C43.9216 22.4466 43.5961 22.4887 43.275 22.4512L43.2837 22.4524ZM38.3475 22.4524H35.8825V21.3149H38.335C38.5185 21.339 38.7042 21.2915 38.8538 21.1824L38.8512 21.1837C38.8979 21.14 38.9351 21.0871 38.9605 21.0284C38.9859 20.9697 38.9989 20.9064 38.9987 20.8424V20.8299C38.9987 20.7656 38.985 20.702 38.9584 20.6434C38.9319 20.5848 38.8933 20.5325 38.845 20.4899C38.7133 20.3964 38.5518 20.3545 38.3913 20.3724H38.3937L38.1612 20.3649C37.0225 20.3349 35.73 20.2999 35.73 18.7337C35.73 17.9712 36.205 17.1574 37.5387 17.1574H40.0737V18.2849H37.7537C37.5768 18.2652 37.3981 18.301 37.2425 18.3874L37.2475 18.3849C37.1818 18.4301 37.1296 18.4922 37.0963 18.5646C37.063 18.6371 37.0499 18.7171 37.0583 18.7964C37.0668 18.8756 37.0965 18.9511 37.1443 19.0149C37.1921 19.0787 37.2563 19.1284 37.33 19.1587L37.3325 19.1599C37.4931 19.2092 37.6611 19.2295 37.8288 19.2199H37.825L38.5062 19.2374C39.0263 19.1873 39.5454 19.3415 39.9538 19.6674L39.95 19.6637C40.0874 19.8151 40.1918 19.9934 40.2568 20.1872C40.3218 20.3811 40.3459 20.5863 40.3275 20.7899V20.7837C40.3313 21.8874 39.6625 22.4499 38.3438 22.4499L38.3475 22.4524ZM35.125 22.4524H30.9V17.1562H35.1213V18.2499H32.1625V19.2124H35.0525V20.2912H32.1625V21.3437L35.125 21.3487V22.4487V22.4524ZM37.5875 13.3449H35.0112L34.5187 12.1649H31.8913L31.4137 13.3449H29.9338C29.2691 13.38 28.6146 13.1706 28.0938 12.7562L28.1 12.7599C27.8526 12.4868 27.6647 12.1652 27.5485 11.8154C27.4323 11.4657 27.3902 11.0956 27.425 10.7287L27.4237 10.7387C27.3916 10.365 27.4357 9.98875 27.5534 9.63269C27.6712 9.27662 27.8601 8.94822 28.1087 8.66744L28.1063 8.66994C28.3687 8.44042 28.6757 8.26738 29.0079 8.16157C29.3402 8.05577 29.6906 8.01947 30.0375 8.05494L30.0275 8.05369H31.2525V9.18244H30.0525C29.8769 9.15982 29.6985 9.17621 29.53 9.23044C29.3614 9.28468 29.2069 9.37541 29.0775 9.49619L29.0788 9.49494C28.8115 9.8372 28.6818 10.267 28.715 10.6999V10.6937C28.6752 11.1385 28.8002 11.5825 29.0662 11.9412L29.0625 11.9362C29.311 12.1393 29.6291 12.2371 29.9487 12.2087H29.9438H30.5112L32.3 8.04619H34.2L36.3413 13.0462V8.04619H38.2675L40.49 11.7312V8.04619H41.79V13.3362H39.985L37.585 9.36369V13.3362L37.5875 13.3449ZM33.2137 8.94744L32.3425 11.0574H34.0887L33.2137 8.94744ZM20.965 13.3424H19.7V8.04994H22.61C23.1412 7.99482 23.6774 8.08512 24.1613 8.31119L24.1425 8.30369C24.337 8.41128 24.4992 8.56899 24.6122 8.76045C24.7252 8.95191 24.7849 9.17013 24.785 9.39244L24.7825 9.47994V9.47619V9.51494C24.7826 9.80363 24.6994 10.0862 24.5428 10.3288C24.3863 10.5714 24.1631 10.7636 23.9 10.8824L23.89 10.8862C24.1412 10.9812 24.3525 11.1337 24.5138 11.3287L24.5163 11.3312C24.6946 11.6244 24.7682 11.9695 24.725 12.3099L24.7262 12.3024V13.3412H23.45L23.445 12.6737V12.5737C23.4904 12.2473 23.4182 11.9154 23.2413 11.6374L23.245 11.6437C23.1126 11.5464 22.9623 11.4764 22.8026 11.4375C22.643 11.3987 22.4773 11.3919 22.315 11.4174L22.3225 11.4162H20.9663V13.3412L20.965 13.3424ZM20.965 9.15119V10.3262H22.5C22.7168 10.3497 22.9359 10.3107 23.1312 10.2137L23.125 10.2162C23.2051 10.1675 23.2713 10.0991 23.3172 10.0174C23.3632 9.93575 23.3874 9.84365 23.3875 9.74994L23.3862 9.71494C23.3926 9.61996 23.371 9.52645 23.3242 9.44359C23.2773 9.36074 23.2072 9.29342 23.1225 9.24994L23.12 9.24869C22.9298 9.16708 22.7226 9.13277 22.5163 9.14869H22.52L20.965 9.15119ZM7.57 13.3424H5L4.51375 12.1624H1.87875L1.38875 13.3424H0.01375L2.28 8.04994H4.15875L6.31 13.0587V8.04994H8.37375L10.0287 11.6387L11.55 8.04994H13.6562V13.3399H12.3563L12.3538 9.19994L10.52 13.3412H9.41L7.57125 9.19369V13.3412L7.57 13.3424ZM3.19 8.94744L2.32875 11.0574H4.05625L3.19 8.94744ZM26.8 13.3412H25.51V8.04994H26.8013V13.3399L26.8 13.3412ZM18.8175 13.3412H14.6V8.04994H18.825V9.14994H15.865V10.1037H18.7537V11.1899H15.8625V12.2474H18.8225V13.3399L18.8175 13.3412Z" fill="white"/>
</g>
<defs>
<clipPath id="clip0_36_4124">
<rect width="45" height="30" fill="white"/>
</clipPath>
</defs>
</svg>
