<svg width="47" height="30" viewBox="0 0 47 30" fill="none" xmlns="http://www.w3.org/2000/svg">
<path d="M4.1978 0.00231269C3.90232 0.0026742 3.60684 0.0046272 3.31138 0.0081706C3.01851 0.0179329 2.71979 0.0335526 2.42887 0.0862692C1.98921 0.155749 1.57233 0.328622 1.21253 0.590667C0.852726 0.852712 0.560281 1.19644 0.359254 1.59357C0.222581 1.86301 0.136673 2.13636 0.0859085 2.43313C0.0312395 2.7221 0.0136673 3.01887 0.00780986 3.31174C0.0038128 3.44773 0.00120937 3.58376 0 3.71981L0 26.2845C0 26.4211 0.00390493 26.5539 0.0058574 26.6886C0.0136673 26.9815 0.0312395 27.2802 0.083956 27.5711C0.136673 27.864 0.224534 28.1393 0.361206 28.4087C0.630441 28.9388 1.0612 29.3696 1.59126 29.6388C1.8607 29.7755 2.13405 29.8633 2.43082 29.916C2.71979 29.9688 3.01656 29.9863 3.30943 29.9941L3.71554 30H43.1436L43.5478 29.9941C43.8407 29.9863 44.1394 29.9688 44.4303 29.916C44.7232 29.8633 44.9985 29.7774 45.266 29.6407C45.7974 29.3718 46.229 28.9402 46.498 28.4087C46.6347 28.1393 46.7225 27.866 46.7733 27.5692C46.826 27.2802 46.8436 26.9834 46.8514 26.6906C46.8553 26.5539 46.8572 26.4211 46.8572 26.2845L46.8592 25.8042V3.71786C46.8592 3.58118 46.8553 3.44842 46.8514 3.3137C46.8477 3.01797 46.8216 2.72295 46.7733 2.43118C46.6799 1.84321 46.403 1.29982 45.9822 0.878672C45.5614 0.457524 45.0182 0.180177 44.4303 0.0862692C44.1385 0.0381563 43.8435 0.0120499 43.5478 0.0081706C43.2531 -0.000173923 42.9582 -0.00212735 42.6633 0.00231269H4.1978ZM4.1978 1.00198H43.1339C43.2627 1.00198 43.3897 1.00588 43.5185 1.00783C43.743 1.01564 44.0066 1.02736 44.2507 1.07031C44.4635 1.10936 44.6412 1.16794 44.8111 1.25384C45.1535 1.4277 45.4318 1.706 45.6057 2.0485C45.6952 2.22549 45.7571 2.41512 45.7892 2.61081C45.8322 2.85096 45.8439 3.11454 45.8498 3.34103C45.8537 3.46794 45.8556 3.59485 45.8556 3.72567V26.2806C45.8556 26.4075 45.8556 26.5344 45.8498 26.6632C45.8439 26.8878 45.8322 27.1514 45.7873 27.3954C45.745 27.6827 45.6343 27.9556 45.4644 28.1911C45.2945 28.4266 45.0704 28.6178 44.8111 28.7485C44.6352 28.8374 44.447 28.8993 44.2526 28.932C44.0117 28.9703 43.7683 28.9912 43.5244 28.9945L43.1339 29.0003H3.7214C3.59254 29.0003 3.46172 28.9964 3.33872 28.9945C3.09347 28.9913 2.84878 28.9704 2.60654 28.932C2.39372 28.893 2.21605 28.8344 2.04423 28.7485C1.70173 28.5753 1.42387 28.2967 1.25153 27.9538C1.16232 27.7767 1.10044 27.5871 1.068 27.3915C1.02922 27.1506 1.00834 26.9072 1.00552 26.6632C1.0029 26.535 1.0016 26.4068 1.00162 26.2786V3.72371C1.00162 3.5968 1.00162 3.46794 1.00552 3.33908C1.01333 3.1165 1.02504 2.85487 1.068 2.6069C1.10705 2.39604 1.16562 2.21836 1.25153 2.04654C1.4255 1.70462 1.70383 1.42697 2.04618 1.25384C2.22294 1.16547 2.41175 1.10362 2.60654 1.07031C2.8506 1.02736 3.11418 1.01369 3.33872 1.00783C3.46563 1.00393 3.59449 1.00393 3.7214 1.00198H4.1978ZM13.3939 8.2261C12.8082 8.25734 12.0897 8.61464 11.6757 9.11642C11.3028 9.54597 10.9729 10.2489 11.0588 10.9088C11.7187 10.9674 12.3767 10.5788 12.7926 10.0927C13.1928 9.58892 13.4662 8.91532 13.3939 8.22805V8.2261ZM17.703 9.04613V19.771H19.3665V16.1063H21.6704C23.7752 16.1063 25.2532 14.6634 25.2532 12.5684C25.2532 10.4792 23.8045 9.04418 21.7231 9.04418L17.703 9.04613ZM19.3665 10.45H21.2838C22.7267 10.45 23.5506 11.2231 23.5506 12.5762C23.5506 13.9273 22.7267 14.7083 21.278 14.7083H19.3665V10.45ZM13.2084 11.0357C12.3298 11.0552 11.5879 11.5824 11.1583 11.5824C10.6995 11.5824 10.0005 11.0669 9.24298 11.0806C8.75019 11.0929 8.26921 11.234 7.84789 11.4899C7.42656 11.7458 7.07958 12.1075 6.84144 12.5391C5.81249 14.3119 6.57005 16.9419 7.57166 18.3867C8.05783 19.1013 8.64357 19.8882 9.41479 19.8589C10.1431 19.8316 10.4301 19.3864 11.3145 19.3864C12.201 19.3864 12.4587 19.8589 13.228 19.8452C14.0285 19.8316 14.5303 19.1306 15.0145 18.4141C15.5729 17.5999 15.8013 16.813 15.815 16.772C15.8013 16.7564 14.2725 16.1707 14.2589 14.4115C14.2432 12.9394 15.4596 12.2384 15.5162 12.1955C14.829 11.1802 13.759 11.0669 13.3881 11.0377C13.3283 11.0339 13.2683 11.0345 13.2084 11.0357ZM29.2265 11.8108C27.2935 11.8108 26.0908 12.8515 26.001 14.2631H27.5181C27.6586 13.5641 28.2385 13.119 29.1679 13.119C30.148 13.119 30.7357 13.6383 30.7357 14.5072V15.1105L28.5939 15.2355C26.7371 15.3409 25.6886 16.1804 25.6886 17.5472C25.6886 18.9529 26.7585 19.9038 28.2893 19.9038C29.3163 19.9038 30.3042 19.3552 30.7572 18.4844H30.7943V19.771H32.3328V14.3822C32.3328 12.8144 31.1223 11.8108 29.2265 11.8108ZM33.0143 11.9514L35.8375 19.7788C35.8375 19.7847 35.695 20.2474 35.695 20.2611C35.4509 21.0616 35.0507 21.376 34.3068 21.376C34.1721 21.376 33.9046 21.376 33.7855 21.3467V22.647C33.9026 22.6685 34.3068 22.6841 34.4395 22.6841C36.0601 22.6841 36.8333 22.0749 37.501 20.1791L40.4297 11.9514H38.735L36.7591 18.3145H36.7298L34.7519 11.9495L33.0143 11.9514ZM30.7357 16.2254V16.8423C30.7357 17.8596 29.8571 18.6327 28.7364 18.6327C27.8734 18.6327 27.3091 18.1876 27.3091 17.5023C27.3091 16.8345 27.8519 16.4089 28.8106 16.3445L30.7357 16.2254Z" fill="white"/>
</svg>
