<svg width="63" height="40" viewBox="0 0 63 40" fill="none" xmlns="http://www.w3.org/2000/svg">
<path d="M5.59707 0.00308359C5.20309 0.0035656 4.80912 0.0061696 4.41518 0.0108941C4.02468 0.0239106 3.62638 0.0447368 3.23849 0.115026C2.65228 0.207665 2.09644 0.438163 1.61671 0.787556C1.13697 1.13695 0.747041 1.59525 0.479005 2.12476C0.296775 2.48402 0.18223 2.84848 0.114545 3.24418C0.0416526 3.62946 0.018223 4.02516 0.0104132 4.41566C0.00508373 4.59698 0.0016125 4.77835 0 4.95974L0 35.0459C0 35.2282 0.00520658 35.4052 0.00780987 35.5848C0.018223 35.9753 0.0416526 36.3736 0.111941 36.7615C0.18223 37.152 0.299378 37.5191 0.481608 37.8783C0.840588 38.5851 1.41493 39.1594 2.12168 39.5184C2.48093 39.7006 2.84539 39.8178 3.24109 39.8881C3.62638 39.9584 4.02208 39.9818 4.41257 39.9922L4.95406 40H57.5249L58.0637 39.9922C58.4542 39.9818 58.8525 39.9584 59.2404 39.8881C59.6309 39.8178 59.998 39.7032 60.3546 39.521C61.0632 39.1624 61.6387 38.5869 61.9973 37.8783C62.1795 37.5191 62.2967 37.1546 62.3644 36.7589C62.4347 36.3736 62.4581 35.9779 62.4685 35.5874C62.4737 35.4052 62.4763 35.2282 62.4763 35.0459L62.4789 34.4055V4.95714C62.4789 4.77491 62.4737 4.59789 62.4685 4.41826C62.4636 4.02396 62.4288 3.6306 62.3644 3.24157C62.2398 2.45761 61.8706 1.73309 61.3096 1.17156C60.7485 0.610032 60.0243 0.240236 59.2404 0.115026C58.8514 0.0508751 58.458 0.0160665 58.0637 0.0108941C57.6708 -0.000231897 57.2776 -0.00283647 56.8845 0.00308359H5.59707ZM5.59707 1.33597H57.5118C57.6837 1.33597 57.8529 1.34117 58.0247 1.34378C58.3241 1.35419 58.6755 1.36981 59.0009 1.42708C59.2847 1.47915 59.5216 1.55725 59.7481 1.67179C60.2047 1.9036 60.5758 2.27467 60.8076 2.73133C60.9269 2.96732 61.0094 3.22015 61.0523 3.48108C61.1096 3.80128 61.1252 4.15272 61.133 4.45471C61.1382 4.62392 61.1408 4.79313 61.1408 4.96755V35.0407C61.1408 35.21 61.1408 35.3792 61.133 35.551C61.1252 35.8504 61.1096 36.2018 61.0497 36.5272C60.9934 36.9103 60.8457 37.2742 60.6192 37.5882C60.3926 37.9022 60.0938 38.1571 59.7481 38.3313C59.5136 38.4499 59.2626 38.5324 59.0035 38.576C58.6823 38.6271 58.3578 38.6549 58.0325 38.6593L57.5118 38.6671H4.96187C4.79005 38.6671 4.61563 38.6619 4.45162 38.6593C4.12463 38.6551 3.79837 38.6272 3.47539 38.576C3.19163 38.5239 2.95473 38.4458 2.72564 38.3313C2.26898 38.1004 1.8985 37.729 1.66871 37.2718C1.54976 37.0356 1.46725 36.7828 1.424 36.522C1.3723 36.2008 1.34445 35.8763 1.34069 35.551C1.3372 35.3801 1.33547 35.2091 1.33549 35.0381V4.96495C1.33549 4.79574 1.33549 4.62392 1.34069 4.4521C1.35111 4.15533 1.36673 3.80649 1.424 3.47587C1.47606 3.19472 1.55416 2.95782 1.66871 2.72873C1.90067 2.27282 2.27177 1.90263 2.72825 1.67179C2.96392 1.55396 3.21567 1.4715 3.47539 1.42708C3.8008 1.36981 4.15225 1.35159 4.45162 1.34378C4.62084 1.33857 4.79265 1.33857 4.96187 1.33597H5.59707ZM17.8586 10.9681C17.0776 11.0098 16.1196 11.4862 15.5677 12.1552C15.0704 12.728 14.6305 13.6651 14.745 14.5451C15.6249 14.6232 16.5022 14.1051 17.0567 13.4569C17.5904 12.7852 17.9549 11.8871 17.8586 10.9707V10.9681ZM23.604 12.0615V26.3614H25.822V21.475H28.8939C31.7002 21.475 33.6709 19.5512 33.6709 16.7578C33.6709 13.9723 31.7393 12.0589 28.9642 12.0589L23.604 12.0615ZM25.822 13.9333H28.3784C30.3023 13.9333 31.4009 14.9642 31.4009 16.7683C31.4009 18.5697 30.3023 19.6111 28.3706 19.6111H25.822V13.9333ZM17.6112 14.7143C16.4398 14.7403 15.4505 15.4432 14.8778 15.4432C14.266 15.4432 13.334 14.7559 12.324 14.7741C11.6669 14.7905 11.0256 14.9787 10.4639 15.3198C9.90209 15.661 9.43944 16.1433 9.12192 16.7188C7.74999 19.0826 8.76007 22.5892 10.0956 24.5156C10.7438 25.4684 11.5248 26.5176 12.5531 26.4785C13.5241 26.4421 13.9068 25.8485 15.0861 25.8485C16.268 25.8485 16.6116 26.4785 17.6373 26.4603C18.7046 26.4421 19.3737 25.5075 20.0193 24.5521C20.7638 23.4665 21.0684 22.4174 21.0866 22.3627C21.0684 22.3419 19.03 21.5609 19.0118 19.2154C18.991 17.2525 20.6128 16.3179 20.6883 16.2606C19.772 14.9069 18.3454 14.7559 17.8507 14.7169C17.771 14.7119 17.6911 14.7127 17.6112 14.7143ZM38.9686 15.7478C36.3914 15.7478 34.7877 17.1353 34.668 19.0175H36.6907C36.8782 18.0855 37.6514 17.492 38.8905 17.492C40.1974 17.492 40.981 18.1844 40.981 19.3429V20.1473L38.1252 20.3139C35.6494 20.4545 34.2515 21.5739 34.2515 23.3962C34.2515 25.2706 35.6781 26.5384 37.719 26.5384C39.0884 26.5384 40.4056 25.8069 41.0096 24.6458H41.0591V26.3614H43.1105V19.1763C43.1105 17.0859 41.4964 15.7478 38.9686 15.7478ZM44.019 15.9352L47.7834 26.3718C47.7834 26.3796 47.5933 26.9966 47.5933 27.0148C47.2679 28.0822 46.7342 28.5013 45.7424 28.5013C45.5628 28.5013 45.2061 28.5013 45.0473 28.4622V30.196C45.2035 30.2247 45.7424 30.2455 45.9194 30.2455C48.0801 30.2455 49.111 29.4333 50.0014 26.9055L53.9063 15.9352H51.6466L49.0121 24.4193H48.9731L46.3359 15.9326L44.019 15.9352ZM40.981 21.6338V22.4564C40.981 23.8128 39.8095 24.8437 38.3152 24.8437C37.1645 24.8437 36.4122 24.2501 36.4122 23.3364C36.4122 22.446 37.1359 21.8785 38.4141 21.7926L40.981 21.6338Z" fill="#344A5E"/>
</svg>
