<svg width="51" height="50" viewBox="0 0 51 50" fill="none" xmlns="http://www.w3.org/2000/svg">
<path d="M36.375 27.5C38.25 27.5 39.9 26.475 40.75 24.925L49.7 8.7C49.9107 8.32106 50.0188 7.89368 50.0136 7.46014C50.0084 7.0266 49.8901 6.60193 49.6704 6.22815C49.4506 5.85438 49.1371 5.54445 48.7608 5.32905C48.3846 5.11364 47.9586 5.00022 47.525 5H10.525L8.175 0H0V5H5L14 23.975L10.625 30.075C8.8 33.425 11.2 37.5 15 37.5H45V32.5H15L17.75 27.5H36.375ZM12.9 10H43.275L36.375 22.5H18.825L12.9 10ZM15 40C12.25 40 10.025 42.25 10.025 45C10.025 47.75 12.25 50 15 50C17.75 50 20 47.75 20 45C20 42.25 17.75 40 15 40ZM40 40C37.25 40 35.025 42.25 35.025 45C35.025 47.75 37.25 50 40 50C42.75 50 45 47.75 45 45C45 42.25 42.75 40 40 40Z" fill="white"/>
</svg>
