<svg width="25" height="25" viewBox="0 0 25 25" fill="none" xmlns="http://www.w3.org/2000/svg">
<path d="M22.2222 0H2.77778C2.04107 0 1.33453 0.292658 0.813592 0.813592C0.292658 1.33453 0 2.04107 0 2.77778V22.2222C0 22.9589 0.292658 23.6655 0.813592 24.1864C1.33453 24.7073 2.04107 25 2.77778 25H22.2222C22.9589 25 23.6655 24.7073 24.1864 24.1864C24.7073 23.6655 25 22.9589 25 22.2222V2.77778C25 2.04107 24.7073 1.33453 24.1864 0.813592C23.6655 0.292658 22.9589 0 22.2222 0ZM9.72222 19.4444L2.77778 12.5L4.73611 10.5417L9.72222 15.5139L20.2639 4.97222L22.2222 6.94444L9.72222 19.4444Z" fill="#344A5E"/>
</svg>
