<svg width="25" height="25" viewBox="0 0 25 25" fill="none" xmlns="http://www.w3.org/2000/svg">
<path d="M5.36719 19.504L11.2889 19.4839L24.2139 6.68238C24.7211 6.17515 25.0002 5.50153 25.0002 4.78497C25.0002 4.06841 24.7211 3.39478 24.2139 2.88755L22.0856 0.759335C21.0712 -0.255124 19.3012 -0.249757 18.2948 0.755309L5.36719 13.5595V19.504ZM20.1882 2.65675L22.3205 4.78094L20.1775 6.90379L18.0493 4.77692L20.1882 2.65675ZM8.05094 14.6786L16.1425 6.6636L18.2707 8.79182L10.1805 16.8042L8.05094 16.8109V14.6786Z" fill="#344A5E"/>
<path d="M2.68376 24.854H21.47C22.9501 24.854 24.1538 23.6503 24.1538 22.1702V10.5388L21.47 13.2226V22.1702H6.92141C6.88652 22.1702 6.85029 22.1837 6.8154 22.1837C6.77112 22.1837 6.72683 22.1716 6.68121 22.1702H2.68376V3.38395H11.8716L14.5553 0.700195H2.68376C1.20366 0.700195 0 1.90386 0 3.38395V22.1702C0 23.6503 1.20366 24.854 2.68376 24.854Z" fill="#344A5E"/>
</svg>
