<svg width="35" height="35" viewBox="0 0 35 35" fill="none" xmlns="http://www.w3.org/2000/svg">
<path d="M3.18182 0C1.44136 0 0 1.44136 0 3.18182V31.8182C0 33.5586 1.44136 35 3.18182 35H31.8182C33.5586 35 35 33.5586 35 31.8182V3.18182C35 1.44136 33.5586 0 31.8182 0H3.18182ZM3.18182 3.18182H31.8182V31.8182H23.5645V21.0795H27.6914L28.288 16.3068H23.5661V13.2236C23.5661 11.8332 23.9066 10.8882 25.9016 10.8882H28.4868V6.5625C28.0461 6.50682 26.5173 6.41295 24.7593 6.41295C21.0923 6.41295 18.5945 8.61955 18.5945 12.7273V16.3068H14.4184V21.0795H18.593V31.8182H3.18182V3.18182Z" fill="white"/>
</svg>
