<svg width="35" height="35" viewBox="0 0 35 35" fill="none" xmlns="http://www.w3.org/2000/svg">
<path fill-rule="evenodd" clip-rule="evenodd" d="M17.5 0C12.747 0 12.152 0.0209999 10.2847 0.105C8.42275 0.19075 7.1505 0.4865 6.0375 0.91875C4.86935 1.35773 3.81107 2.04633 2.9365 2.9365C2.04637 3.8111 1.35778 4.86938 0.91875 6.0375C0.4865 7.1505 0.19075 8.42275 0.105 10.2847C0.0192499 12.152 0 12.747 0 17.5C0 22.253 0.0192499 22.848 0.105 24.7152C0.19075 26.5772 0.4865 27.8495 0.91875 28.9625C1.35783 30.1306 2.04642 31.1889 2.9365 32.0635C3.81114 32.9536 4.8694 33.6422 6.0375 34.0813C7.1505 34.5135 8.42275 34.8093 10.2847 34.895C12.152 34.979 12.747 35 17.5 35C22.253 35 22.848 34.979 24.7152 34.895C26.5772 34.8093 27.8495 34.5135 28.9625 34.0813C30.1306 33.6422 31.1889 32.9536 32.0635 32.0635C32.9536 31.1889 33.6422 30.1306 34.0813 28.9625C34.5135 27.8495 34.8093 26.5772 34.895 24.7152C34.979 22.848 35 22.253 35 17.5C35 12.747 34.979 12.152 34.895 10.2847C34.8093 8.42275 34.5135 7.1505 34.0813 6.0375C33.6422 4.86938 32.9536 3.8111 32.0635 2.9365C31.1889 2.04633 30.1306 1.35773 28.9625 0.91875C27.8495 0.4865 26.5772 0.19075 24.7152 0.105C22.848 0.0209999 22.253 0 17.5 0ZM17.5 3.1535C22.1725 3.1535 22.7255 3.171 24.57 3.255C26.278 3.33375 27.2038 3.61725 27.8215 3.857C28.637 4.1755 29.2215 4.55525 29.834 5.166C30.4465 5.7785 30.8245 6.363 31.143 7.1785C31.381 7.79625 31.668 8.722 31.745 10.4283C31.829 12.2745 31.8465 12.8257 31.8465 17.5C31.8465 22.1725 31.829 22.7255 31.745 24.57C31.6662 26.278 31.381 27.2038 31.143 27.8215C30.8624 28.5817 30.4152 29.2693 29.834 29.834C29.2215 30.4465 28.637 30.8245 27.8215 31.143C27.2038 31.381 26.278 31.668 24.5718 31.745C22.7273 31.829 22.1743 31.8465 17.5 31.8465C12.8275 31.8465 12.2728 31.829 10.43 31.745C8.722 31.6662 7.79625 31.381 7.1785 31.143C6.41827 30.8625 5.73058 30.4152 5.166 29.834C4.58475 29.2694 4.13745 28.5817 3.857 27.8215C3.61725 27.2038 3.332 26.278 3.255 24.5718C3.171 22.7255 3.1535 22.1743 3.1535 17.5C3.1535 12.8275 3.171 12.2745 3.255 10.43C3.33375 8.722 3.61725 7.79625 3.857 7.1785C4.1755 6.363 4.55525 5.7785 5.166 5.166C5.7785 4.5535 6.363 4.1755 7.1785 3.857C7.79625 3.61725 8.722 3.332 10.4283 3.255C12.2745 3.171 12.8257 3.1535 17.5 3.1535ZM17.5 23.3328C15.9531 23.3328 14.4695 22.7182 13.3756 21.6244C12.2818 20.5305 11.6672 19.0469 11.6672 17.5C11.6672 15.9531 12.2818 14.4695 13.3756 13.3756C14.4695 12.2818 15.9531 11.6672 17.5 11.6672C19.0469 11.6672 20.5305 12.2818 21.6244 13.3756C22.7182 14.4695 23.3328 15.9531 23.3328 17.5C23.3328 19.0469 22.7182 20.5305 21.6244 21.6244C20.5305 22.7182 19.0469 23.3328 17.5 23.3328ZM17.5 8.51375C16.3199 8.51375 15.1514 8.74619 14.0611 9.19779C12.9708 9.64939 11.9802 10.3113 11.1458 11.1458C10.3113 11.9802 9.64939 12.9708 9.19779 14.0611C8.74619 15.1514 8.51375 16.3199 8.51375 17.5C8.51375 18.6801 8.74619 19.8486 9.19779 20.9389C9.64939 22.0292 10.3113 23.0198 11.1458 23.8542C11.9802 24.6887 12.9708 25.3506 14.0611 25.8022C15.1514 26.2538 16.3199 26.4863 17.5 26.4863C19.8833 26.4863 22.169 25.5395 23.8542 23.8542C25.5395 22.169 26.4863 19.8833 26.4863 17.5C26.4863 15.1167 25.5395 12.831 23.8542 11.1458C22.169 9.46051 19.8833 8.51375 17.5 8.51375ZM28.9415 8.1585C28.9415 8.43428 28.8872 8.70735 28.7816 8.96214C28.6761 9.21692 28.5214 9.44842 28.3264 9.64342C28.1314 9.83843 27.8999 9.99311 27.6451 10.0986C27.3904 10.2042 27.1173 10.2585 26.8415 10.2585C26.5657 10.2585 26.2926 10.2042 26.0379 10.0986C25.7831 9.99311 25.5516 9.83843 25.3566 9.64342C25.1616 9.44842 25.0069 9.21692 24.9014 8.96214C24.7958 8.70735 24.7415 8.43428 24.7415 8.1585C24.7415 7.60155 24.9627 7.0674 25.3566 6.67358C25.7504 6.27975 26.2845 6.0585 26.8415 6.0585C27.3985 6.0585 27.9326 6.27975 28.3264 6.67358C28.7202 7.0674 28.9415 7.60155 28.9415 8.1585Z" fill="white"/>
</svg>
