<svg width="48" height="30" viewBox="0 0 48 30" fill="none" xmlns="http://www.w3.org/2000/svg">
<path d="M2.22282 4.81088e-05C0.995588 4.81088e-05 0 0.995111 0 2.22286V27.7772C0 29.0047 0.995731 30 2.22282 30H45.5479C46.7751 30 47.7707 29.0049 47.7707 27.7772V2.22282C47.7707 0.995254 46.7749 0 45.5479 0H2.22277L2.22282 4.81088e-05ZM15.6643 3.61122C18.3911 3.61122 20.8954 4.5599 22.8612 6.14455C21.2073 7.62443 19.9737 9.56874 19.365 11.7725H20.3189C20.8807 9.95449 21.9013 8.33583 23.2464 7.05219C24.5915 8.33583 25.612 9.95449 26.1738 11.7725H27.1427C26.5256 9.58035 25.2902 7.64765 23.6375 6.17741C25.6071 4.57265 28.1213 3.61117 30.8598 3.61117C37.1794 3.61117 42.3024 8.73467 42.3024 15.0552C42.3024 21.3758 37.1794 26.4993 30.8598 26.4993C28.0758 26.4993 25.5229 25.5056 23.539 23.8525C25.3137 22.3085 26.622 20.2388 27.2203 17.8842H26.2872C25.756 19.8604 24.6867 21.6182 23.2463 22.9927C21.806 21.6182 20.7382 19.8604 20.2069 17.8842H19.3187C19.9205 20.2047 21.2117 22.2455 22.9597 23.7749C20.9794 25.4075 18.4366 26.3888 15.6642 26.3888C9.34465 26.3888 4.22173 21.29 4.22173 15C4.22173 8.71007 9.34465 3.61122 15.6643 3.61122ZM30.0014 11.6561C28.6265 11.6561 27.289 12.8581 27.289 15.115C27.289 16.6115 28.0115 17.599 29.4327 17.599C29.8345 17.5992 30.4747 17.4348 30.4747 17.4348L30.6867 16.1271C30.6867 16.1271 30.1024 16.4227 29.7014 16.4227C28.8566 16.4227 28.5176 15.773 28.5176 15.0747C28.5176 13.6581 29.2445 12.8787 30.0537 12.8787C30.6605 12.8787 31.1479 13.2221 31.1479 13.2221L31.342 11.9502C31.342 11.9502 30.6205 11.6561 30.0014 11.6561ZM41.5604 11.7666L40.3647 11.7695L40.1079 13.343C40.1079 13.343 39.6584 12.7324 38.9555 12.7324C37.8625 12.7324 36.9521 14.0308 36.9521 15.524C36.9521 16.4879 37.4366 17.4333 38.43 17.4333C39.1445 17.4333 39.5407 16.9422 39.5407 16.9422L39.4884 17.3617H40.6498L41.5604 11.7666ZM7.31187 11.783L6.35946 17.3915H7.50744L8.23298 13.1624L8.34046 17.3915H9.1615L10.6932 13.1624L10.0139 17.3915H11.2336L12.1741 11.783H10.2871L9.11225 15.2239L9.05105 11.783H7.31192L7.31187 11.783ZM19.3053 12.1472C19.2794 12.1732 18.6111 16.0265 18.6111 16.4958C18.6111 17.1907 19.0006 17.5011 19.5486 17.496C19.9413 17.4927 20.2454 17.3941 20.3861 17.3527C20.4008 17.3488 20.4294 17.3408 20.4294 17.3408L20.5772 16.3376C20.4968 16.3376 20.3785 16.372 20.2741 16.372C19.865 16.372 19.8197 16.1543 19.8457 15.9927L20.1756 13.9461H20.7981L20.9489 12.8369H20.3622L20.4817 12.1472H19.3053ZM33.1812 12.7115C32.3799 12.7115 31.766 12.9757 31.766 12.9757L31.5958 14.0058C31.5958 14.0058 32.1029 13.7953 32.8692 13.7953C33.3043 13.7953 33.623 13.8451 33.623 14.2073C33.623 14.4274 33.5842 14.5089 33.5842 14.5089C33.5842 14.5089 33.2402 14.479 33.0812 14.479C32.0707 14.479 31.0091 14.9219 31.0091 16.254C31.0091 17.3036 31.706 17.5438 32.1377 17.5438C32.9621 17.5438 33.3176 16.9961 33.3364 16.9944L33.2976 17.4513H34.3262L34.786 14.1551C34.7861 12.7565 33.5949 12.7115 33.1812 12.7115V12.7115ZM13.8863 12.7175C13.0821 12.7175 12.4651 12.9817 12.4651 12.9817L12.295 14.0118C12.295 14.0118 12.8037 13.8013 13.5728 13.8013C14.0095 13.8013 14.3297 13.8512 14.3297 14.2133C14.3297 14.4332 14.2909 14.5149 14.2909 14.5149C14.2909 14.5149 13.9458 14.485 13.7863 14.485C12.772 14.485 11.7068 14.9271 11.7068 16.2585C11.7068 17.3075 12.4051 17.5483 12.8384 17.5483C13.6658 17.5483 14.0226 17.0006 14.0416 16.9989L14.0028 17.4557H15.0358L15.4971 14.1611C15.4971 12.7633 14.3015 12.7174 13.8863 12.7174V12.7175ZM17.5348 12.7175C16.6712 12.7175 15.7942 13.0661 15.7942 14.2566C15.7942 15.6056 17.2557 15.4693 17.2557 16.0375C17.2557 16.4168 16.8478 16.4481 16.5331 16.4481C15.9885 16.4481 15.4988 16.2599 15.4971 16.269L15.3403 17.299C15.3685 17.3077 15.6718 17.4438 16.6511 17.4438C16.914 17.4438 18.4171 17.5106 18.4171 15.945C18.4171 14.4813 17.0257 14.7714 17.0257 14.1834C17.0257 13.8907 17.2516 13.7983 17.6662 13.7983C17.8308 13.7983 18.4649 13.8506 18.4649 13.8506L18.6111 12.81C18.6111 12.8102 18.2019 12.7175 17.5348 12.7175ZM22.9329 12.7175C21.7329 12.7177 20.8444 14.0081 20.8444 15.4658C20.8444 17.1482 21.9576 17.5483 22.906 17.5483C23.7815 17.5483 24.1674 17.3527 24.1674 17.3527L24.3764 16.2048C24.3764 16.2048 23.7105 16.4973 23.109 16.4973C21.8275 16.4973 22.0521 15.5434 22.0521 15.5434H24.478C24.478 15.5434 24.6347 14.7725 24.6347 14.4581C24.6347 13.6737 24.2432 12.7175 22.9329 12.7175ZM27.2786 12.7667C26.7379 12.7667 26.3365 13.4938 26.3365 13.4938L26.444 12.8265H25.3214L24.5676 17.4334H25.8081C26.1594 15.4661 26.2236 13.8687 27.0621 14.1611C27.2088 13.3996 27.3512 13.1054 27.5114 12.7832C27.5114 12.7832 27.4362 12.7667 27.2786 12.7667ZM37.3297 12.7667C36.7892 12.7667 36.3878 13.4938 36.3878 13.4938L36.4953 12.8265H35.3727L34.6188 17.4334H35.8578C36.2093 15.4661 36.2751 13.8687 37.1133 14.1611C37.2603 13.3996 37.4026 13.1054 37.5627 12.7832C37.5627 12.7832 37.4873 12.7667 37.3297 12.7667ZM22.9269 13.7565C23.6084 13.7565 23.4838 14.5258 23.4838 14.588H22.1417C22.1417 14.5086 22.2686 13.7565 22.9269 13.7565ZM39.1436 13.8461C39.5773 13.8459 39.8004 14.139 39.8004 14.8283C39.8004 15.4538 39.485 16.2898 38.8315 16.2898C38.3979 16.2898 38.1941 15.9317 38.1941 15.3702C38.1941 14.4522 38.6141 13.8461 39.1436 13.8461ZM33.1827 15.4135C33.3596 15.4138 33.3962 15.431 33.426 15.4389C33.4217 15.4382 33.4209 15.439 33.438 15.4419C33.4604 15.6471 33.314 16.6093 32.6064 16.6093C32.2416 16.6093 32.1482 16.3192 32.1482 16.148C32.1482 15.8142 32.3219 15.4135 33.1827 15.4135ZM13.8878 15.418C14.0888 15.4183 14.1107 15.4407 14.1446 15.4464C14.167 15.6515 14.0201 16.6123 13.3101 16.6123C12.9438 16.6123 12.8488 16.3236 12.8488 16.1525C12.8488 15.8189 13.0237 15.418 13.8878 15.418Z" fill="white"/>
</svg>
