<svg width="64" height="40" viewBox="0 0 64 40" fill="none" xmlns="http://www.w3.org/2000/svg">
<path d="M2.96375 6.41451e-05C1.32745 6.41451e-05 0 1.32681 0 2.96382V37.0363C0 38.673 1.32764 40 2.96375 40H60.7305C62.3668 40 63.6942 38.6733 63.6942 37.0362V2.96375C63.6942 1.327 62.3666 0 60.7305 0H2.96369L2.96375 6.41451e-05ZM20.8857 4.81496C24.5214 4.81496 27.8605 6.07986 30.4816 8.19273C28.2764 10.1659 26.6315 12.7583 25.82 15.6967H27.0919C27.841 13.2727 29.2017 11.1144 30.9952 9.40292C32.7887 11.1144 34.1493 13.2727 34.8984 15.6967H36.1903C35.3675 12.7738 33.7203 10.1969 31.5167 8.23655C34.1428 6.09687 37.495 4.8149 41.1464 4.8149C49.5726 4.8149 56.4032 11.6462 56.4032 20.0737C56.4032 28.5011 49.5726 35.3324 41.1464 35.3324C37.4343 35.3324 34.0305 34.0075 31.3853 31.8033C33.7515 29.7447 35.496 26.9851 36.2938 23.8456H35.0496C34.3413 26.4806 32.9156 28.8242 30.9951 30.6569C29.0747 28.8242 27.651 26.4806 26.9426 23.8456H25.7582C26.5607 26.9396 28.2823 29.6607 30.6129 31.6999C27.9726 33.8767 24.5821 35.1851 20.8856 35.1851C12.4595 35.1851 5.62897 28.3866 5.62897 20C5.62897 11.6134 12.4595 4.81496 20.8857 4.81496ZM40.0019 15.5414C38.1687 15.5414 36.3853 17.1441 36.3853 20.1533C36.3853 22.1487 37.3486 23.4654 39.2436 23.4654C39.7794 23.4656 40.6329 23.2465 40.6329 23.2465L40.9155 21.5028C40.9155 21.5028 40.1366 21.8969 39.6018 21.8969C38.4754 21.8969 38.0234 21.0306 38.0234 20.0996C38.0234 18.2109 38.9926 17.1716 40.0716 17.1716C40.8807 17.1716 41.5306 17.6294 41.5306 17.6294L41.7894 15.9335C41.7894 15.9335 40.8274 15.5414 40.0019 15.5414ZM55.4139 15.6888L53.8196 15.6927L53.4772 17.7907C53.4772 17.7907 52.8779 16.9765 51.9406 16.9765C50.4833 16.9765 49.2694 18.7077 49.2694 20.6987C49.2694 21.9839 49.9155 23.2444 51.24 23.2444C52.1927 23.2444 52.7209 22.5896 52.7209 22.5896L52.6512 23.1489H54.1998L55.4139 15.6888ZM9.74916 15.7106L8.47929 23.1887H10.0099L10.9773 17.5498L11.1206 23.1887H12.2153L14.2576 17.5498L13.3519 23.1887H14.9781L16.2321 15.7106H13.7162L12.1497 20.2986L12.0681 15.7107H9.74922L9.74916 15.7106ZM25.7404 16.1963C25.7058 16.231 24.8149 21.3687 24.8149 21.9944C24.8149 22.9209 25.3342 23.3347 26.0649 23.3281C26.5884 23.3236 26.9939 23.1921 27.1815 23.137C27.2011 23.1317 27.2392 23.121 27.2392 23.121L27.4363 21.7835C27.3291 21.7835 27.1713 21.8293 27.0322 21.8293C26.4866 21.8293 26.4262 21.539 26.4609 21.3237L26.9008 18.5948H27.7308L27.9319 17.1158H27.1496L27.3089 16.1963H25.7404ZM44.2416 16.9487C43.1732 16.9487 42.3546 17.301 42.3546 17.301L42.1277 18.6744C42.1277 18.6744 42.8038 18.3937 43.8256 18.3937C44.4057 18.3937 44.8307 18.4601 44.8307 18.9431C44.8307 19.2365 44.779 19.3452 44.779 19.3452C44.779 19.3452 44.3202 19.3054 44.1082 19.3054C42.7609 19.3054 41.3455 19.8958 41.3455 21.672C41.3455 23.0715 42.2747 23.3917 42.8503 23.3917C43.9495 23.3917 44.4235 22.6615 44.4486 22.6593L44.3968 23.2684H45.7683L46.3813 18.8735C46.3815 17.0086 44.7932 16.9486 44.2416 16.9486V16.9487ZM18.5151 16.9567C17.4428 16.9567 16.6202 17.309 16.6202 17.309L16.3933 18.6824C16.3933 18.6824 17.0716 18.4017 18.0971 18.4017C18.6794 18.4017 19.1063 18.4683 19.1063 18.9511C19.1063 19.2443 19.0545 19.3532 19.0545 19.3532C19.0545 19.3532 18.5944 19.3133 18.3818 19.3133C17.0293 19.3133 15.6091 19.9028 15.6091 21.678C15.6091 23.0767 16.5402 23.3977 17.1178 23.3977C18.2211 23.3977 18.6968 22.6674 18.7221 22.6653L18.6704 23.2743H20.0477L20.6628 18.8814C20.6628 17.0177 19.0687 16.9566 18.5151 16.9566V16.9567ZM23.3797 16.9567C22.2283 16.9567 21.0589 17.4214 21.0589 19.0088C21.0589 20.8074 23.0075 20.6257 23.0075 21.3833C23.0075 21.8891 22.4637 21.9308 22.0442 21.9308C21.3181 21.9308 20.6651 21.6799 20.6628 21.6919L20.4538 23.0653C20.4914 23.077 20.8957 23.2584 22.2014 23.2584C22.552 23.2584 24.5561 23.3474 24.5561 21.26C24.5561 19.3084 22.701 19.6953 22.701 18.9112C22.701 18.5209 23.0022 18.3977 23.5549 18.3977C23.7744 18.3977 24.6198 18.4674 24.6198 18.4674L24.8149 17.08C24.8149 17.0802 24.2693 16.9567 23.3797 16.9567ZM30.5771 16.9567C28.9772 16.957 27.7926 18.6775 27.7926 20.6211C27.7926 22.8643 29.2768 23.3977 30.5414 23.3977C31.7086 23.3977 32.2233 23.137 32.2233 23.137L32.5019 21.6063C32.5019 21.6063 31.614 21.9965 30.8121 21.9965C29.1034 21.9965 29.4028 20.7246 29.4028 20.7246H32.6373C32.6373 20.7246 32.8463 19.6967 32.8463 19.2775C32.8463 18.2316 32.3243 16.9567 30.5771 16.9567ZM36.3714 17.0223C35.6506 17.0223 35.1154 17.9917 35.1154 17.9917L35.2587 17.1019H33.7619L32.7568 23.2445H34.4108C34.8792 20.6214 34.9648 18.4916 36.0827 18.8814C36.2784 17.8662 36.4683 17.4739 36.6819 17.0442C36.6819 17.0442 36.5816 17.0223 36.3714 17.0223ZM49.773 17.0223C49.0522 17.0223 48.5171 17.9917 48.5171 17.9917L48.6604 17.1019H47.1636L46.1583 23.2445H47.8104C48.2791 20.6214 48.3668 18.4916 49.4844 18.8814C49.6804 17.8662 49.8701 17.4739 50.0835 17.0442C50.0835 17.0442 49.9831 17.0223 49.773 17.0223ZM30.5692 18.342C31.4779 18.342 31.3117 19.3677 31.3117 19.4507H29.5222C29.5222 19.3448 29.6915 18.342 30.5692 18.342ZM52.1914 18.4614C52.7698 18.4612 53.0672 18.8519 53.0672 19.7711C53.0672 20.6051 52.6466 21.7198 51.7754 21.7198C51.1972 21.7198 50.9255 21.2423 50.9255 20.4937C50.9255 19.2696 51.4855 18.4614 52.1914 18.4614ZM44.2436 20.5514C44.4795 20.5517 44.5283 20.5746 44.568 20.5853C44.5623 20.5843 44.5612 20.5854 44.5839 20.5892C44.6138 20.8628 44.4187 22.1458 43.4752 22.1458C42.9888 22.1458 42.8642 21.7589 42.8642 21.5307C42.8642 21.0856 43.0959 20.5514 44.2436 20.5514ZM18.5171 20.5574C18.7851 20.5577 18.8143 20.5876 18.8595 20.5952C18.8894 20.8686 18.6935 22.1497 17.7468 22.1497C17.2584 22.1497 17.1318 21.7647 17.1318 21.5367C17.1318 21.0918 17.3649 20.5574 18.5171 20.5574Z" fill="#344A5E"/>
</svg>
