<svg width="56" height="56" viewBox="0 0 56 56" fill="none" xmlns="http://www.w3.org/2000/svg">
<path d="M28 22.4444C29.2767 22.4444 30.541 22.193 31.7205 21.7044C32.9001 21.2158 33.9719 20.4997 34.8746 19.5969C35.7774 18.6941 36.4936 17.6223 36.9822 16.4428C37.4707 15.2632 37.7222 13.999 37.7222 12.7222C37.7222 11.4455 37.4707 10.1812 36.9822 9.00169C36.4936 7.82213 35.7774 6.75037 34.8746 5.84757C33.9719 4.94478 32.9001 4.22865 31.7205 3.74006C30.541 3.25147 29.2767 3 28 3C25.4215 3 22.9486 4.0243 21.1254 5.84757C19.3021 7.67084 18.2778 10.1437 18.2778 12.7222C18.2778 15.3007 19.3021 17.7736 21.1254 19.5969C22.9486 21.4201 25.4215 22.4444 28 22.4444ZM3 51.3333V53H53V51.3333C53 45.1111 53 42 51.7889 39.6222C50.7236 37.5316 49.0239 35.8319 46.9333 34.7667C44.5556 33.5556 41.4444 33.5556 35.2222 33.5556H20.7778C14.5556 33.5556 11.4444 33.5556 9.06667 34.7667C6.97607 35.8319 5.27635 37.5316 4.21111 39.6222C3 42 3 45.1111 3 51.3333Z" stroke="white" stroke-width="5" stroke-linecap="round" stroke-linejoin="round"/>
</svg>
