<svg width="20" height="23" viewBox="0 0 20 23" fill="none" xmlns="http://www.w3.org/2000/svg">
<g clip-path="url(#clip0_506_1830)">
<path d="M19.2857 1.42858H13.9286L13.5089 0.593758C13.42 0.415282 13.2831 0.265152 13.1135 0.160257C12.944 0.0553624 12.7485 -0.000135177 12.5491 7.82711e-06H7.44643C7.24749 -0.000756929 7.05236 0.0545337 6.8834 0.159545C6.71443 0.264557 6.57846 0.415041 6.49107 0.593758L6.07143 1.42858H0.714286C0.524845 1.42858 0.343164 1.50383 0.209209 1.63779C0.0752549 1.77174 0 1.95342 0 2.14287L0 3.57144C0 3.76088 0.0752549 3.94256 0.209209 4.07651C0.343164 4.21047 0.524845 4.28572 0.714286 4.28572H19.2857C19.4752 4.28572 19.6568 4.21047 19.7908 4.07651C19.9247 3.94256 20 3.76088 20 3.57144V2.14287C20 1.95342 19.9247 1.77174 19.7908 1.63779C19.6568 1.50383 19.4752 1.42858 19.2857 1.42858ZM2.375 20.8482C2.40907 21.3922 2.64918 21.9028 3.04645 22.2761C3.44373 22.6493 3.9683 22.8571 4.51339 22.8572H15.4866C16.0317 22.8571 16.5563 22.6493 16.9535 22.2761C17.3508 21.9028 17.5909 21.3922 17.625 20.8482L18.5714 5.71429H1.42857L2.375 20.8482Z" fill="#344A5E"/>
</g>
<defs>
<clipPath id="clip0_506_1830">
<rect width="20" height="22.8571" fill="white"/>
</clipPath>
</defs>
</svg>
