<svg width="64" height="40" viewBox="0 0 64 40" fill="none" xmlns="http://www.w3.org/2000/svg">
<path d="M2.54777 0C1.14096 0 0 1.14064 0 2.54777V37.4522C0 38.8593 1.14153 40 2.54777 40H61.1465C62.5533 40 63.6943 38.8594 63.6943 37.4522V2.54777C63.6943 1.1407 62.5527 0 61.1465 0H2.54777ZM38.0414 11.9208C39.5916 11.9208 40.834 12.2632 41.6262 12.5816L41.0848 15.9873L40.7265 15.8061C39.9885 15.4877 39.0405 15.1813 37.7329 15.203C36.1675 15.203 35.4439 15.9013 35.4439 16.5546C35.4348 17.2907 36.2894 17.7762 37.6871 18.5032C39.9939 19.6248 41.0601 20.9848 41.045 22.7727C41.014 26.0349 38.2855 28.1429 34.0824 28.1429C32.2892 28.1232 30.5617 27.7436 29.6278 27.3049L30.1891 23.7858L30.7046 24.0366C32.0178 24.6234 32.8682 24.8607 34.4685 24.8607C35.6178 24.8607 36.8513 24.3795 36.8611 23.3261C36.8685 22.6382 36.3455 22.1477 34.789 21.3774C33.2723 20.6255 31.2616 19.3661 31.2839 17.1079C31.3076 14.0531 34.0904 11.9208 38.0414 11.9208ZM5.63293 12.4204H12.088C12.9572 12.4532 13.659 12.7331 13.9013 13.6764L15.2926 20.8579C15.2928 20.8585 15.2924 20.8611 15.2926 20.8618L15.7106 23.0136L19.6297 12.4204H23.8694L17.5676 27.926L13.332 27.9299L9.96019 15.418C11.9664 16.4808 13.6745 17.7106 14.6636 19.4029C14.4086 18.8674 14.0725 18.2629 13.6425 17.6672C13.1418 16.9734 12.0603 16.0777 11.6083 15.6966C10.0331 14.3688 7.89395 13.2964 5.58318 12.7289L5.63293 12.4204ZM25.5554 12.4383H29.7015L27.1078 27.92H22.9618L25.5554 12.4383ZM48.9729 12.4383H52.1139L55.4021 27.92H51.6322C51.6322 27.92 51.2582 26.1414 51.1366 25.5991C50.544 25.5991 46.3998 25.5932 45.9335 25.5932C45.7757 26.0123 45.0776 27.9199 45.0776 27.9199H40.8121L46.8452 13.7241C47.2723 12.7154 48.0004 12.4383 48.9729 12.4383ZM49.2815 16.6023C49.0775 17.1782 48.7222 18.1081 48.746 18.0673C48.746 18.0673 47.4697 21.4711 47.1358 22.3547L50.4896 22.3527C50.1781 20.8764 49.8662 19.4002 49.5541 17.9241L49.2815 16.6024V16.6023Z" fill="#344A5E"/>
</svg>
