<svg width="48" height="30" viewBox="0 0 48 30" fill="none" xmlns="http://www.w3.org/2000/svg">
<path d="M1.91083 0C0.855717 0 0 0.855478 0 1.91083V28.0892C0 29.1445 0.856147 30 1.91083 30H45.8599C46.915 30 47.7707 29.1445 47.7707 28.0892V1.91083C47.7707 0.855525 46.9146 0 45.8599 0H1.91083ZM28.5311 8.94057C29.6937 8.94057 30.6255 9.19739 31.2196 9.43619L30.8136 11.9904L30.5449 11.8546C29.9914 11.6158 29.2804 11.386 28.2997 11.4022C27.1256 11.4022 26.5829 11.926 26.5829 12.4159C26.5761 12.968 27.2171 13.3321 28.2653 13.8774C29.9954 14.7186 30.795 15.7386 30.7838 17.0795C30.7605 19.5262 28.7142 21.1072 25.5618 21.1072C24.2169 21.0924 22.9212 20.8077 22.2208 20.4787L22.6418 17.8393L23.0285 18.0275C24.0134 18.4675 24.6511 18.6455 25.8514 18.6455C26.7133 18.6455 27.6385 18.2846 27.6458 17.4945C27.6514 16.9786 27.2591 16.6108 26.0917 16.033C24.9542 15.4692 23.4462 14.5246 23.4629 12.8309C23.4807 10.5398 25.5678 8.94057 28.5311 8.94057ZM4.2247 9.31529H9.06597C9.7179 9.33994 10.2442 9.54984 10.426 10.2573L11.4695 15.6434C11.4696 15.6439 11.4693 15.6459 11.4695 15.6464L11.7829 17.2602L14.7223 9.31529H17.9021L13.1757 20.9445L9.99898 20.9475L7.47014 11.5635C8.97482 12.3606 10.2558 13.2829 10.9977 14.5521C10.8064 14.1505 10.5544 13.6972 10.2319 13.2504C9.85634 12.7301 9.04524 12.0583 8.70621 11.7725C7.52484 10.7766 5.92046 9.97228 4.18739 9.54669L4.2247 9.31529ZM19.1665 9.32871H22.2761L20.3309 20.94H17.2213L19.1665 9.32871ZM36.7297 9.32871H39.0854L41.5516 20.94H38.7241C38.7241 20.94 38.4436 19.6061 38.3524 19.1993C37.908 19.1993 34.7999 19.1949 34.4501 19.1949C34.3318 19.5092 33.8082 20.94 33.8082 20.94H30.6091L35.1339 10.2931C35.4542 9.53651 36.0003 9.32871 36.7297 9.32871ZM36.9611 12.4517C36.8081 12.8836 36.5417 13.5811 36.5595 13.5504C36.5595 13.5504 35.6023 16.1033 35.3518 16.766L37.8672 16.7645C37.6335 15.6573 37.3997 14.5502 37.1656 13.4431L36.9611 12.4518V12.4517Z" fill="white"/>
</svg>
