<svg width="45" height="45" viewBox="0 0 45 45" fill="none" xmlns="http://www.w3.org/2000/svg">
<path d="M42.9545 8.18182H2.04545C1.50297 8.18182 0.982697 8.39732 0.5991 8.78092C0.215503 9.16452 0 9.68478 0 10.2273V18.4091C0.00355809 19.6751 0.398615 20.909 1.13101 21.9417C1.86341 22.9744 2.89729 23.7553 4.09091 24.1773V42.9545C4.09091 43.497 4.30641 44.0173 4.69001 44.4009C5.07361 44.7845 5.59388 45 6.13636 45H38.8636C39.4061 45 39.9264 44.7845 40.31 44.4009C40.6936 44.0173 40.9091 43.497 40.9091 42.9545V24.1773C42.1027 23.7553 43.1366 22.9744 43.869 21.9417C44.6014 20.909 44.9964 19.6751 45 18.4091V10.2273C45 9.68478 44.7845 9.16452 44.4009 8.78092C44.0173 8.39732 43.497 8.18182 42.9545 8.18182ZM28.6364 12.2727H32.7273V18.4091C32.7273 18.9516 32.5118 19.4718 32.1282 19.8554C31.7446 20.239 31.2243 20.4545 30.6818 20.4545C30.1393 20.4545 29.6191 20.239 29.2355 19.8554C28.8519 19.4718 28.6364 18.9516 28.6364 18.4091V12.2727ZM20.4545 12.2727H24.5455V18.4091C24.5455 18.9516 24.33 19.4718 23.9464 19.8554C23.5628 20.239 23.0425 20.4545 22.5 20.4545C21.9575 20.4545 21.4372 20.239 21.0536 19.8554C20.67 19.4718 20.4545 18.9516 20.4545 18.4091V12.2727ZM12.2727 12.2727H16.3636V18.4091C16.3636 18.9516 16.1481 19.4718 15.7645 19.8554C15.3809 20.239 14.8607 20.4545 14.3182 20.4545C13.7757 20.4545 13.2554 20.239 12.8718 19.8554C12.4882 19.4718 12.2727 18.9516 12.2727 18.4091V12.2727ZM6.13636 20.4545C5.59388 20.4545 5.07361 20.239 4.69001 19.8554C4.30641 19.4718 4.09091 18.9516 4.09091 18.4091V12.2727H8.18182V18.4091C8.18182 18.9516 7.96631 19.4718 7.58272 19.8554C7.19912 20.239 6.67885 20.4545 6.13636 20.4545ZM26.5909 40.9091H18.4091V36.8182C18.4091 35.7332 18.8401 34.6927 19.6073 33.9255C20.3745 33.1583 21.415 32.7273 22.5 32.7273C23.585 32.7273 24.6255 33.1583 25.3927 33.9255C26.1599 34.6927 26.5909 35.7332 26.5909 36.8182V40.9091ZM36.8182 40.9091H30.6818V36.8182C30.6818 34.6482 29.8198 32.5672 28.2854 31.0328C26.751 29.4984 24.67 28.6364 22.5 28.6364C20.33 28.6364 18.249 29.4984 16.7146 31.0328C15.1802 32.5672 14.3182 34.6482 14.3182 36.8182V40.9091H8.18182V24.1773C8.93367 23.8982 9.62722 23.4821 10.2273 22.95C11.3523 23.9563 12.8088 24.5126 14.3182 24.5126C15.8276 24.5126 17.284 23.9563 18.4091 22.95C19.5341 23.9563 20.9906 24.5126 22.5 24.5126C24.0094 24.5126 25.4659 23.9563 26.5909 22.95C27.716 23.9563 29.1724 24.5126 30.6818 24.5126C32.1912 24.5126 33.6477 23.9563 34.7727 22.95C35.3728 23.4821 36.0663 23.8982 36.8182 24.1773V40.9091ZM40.9091 18.4091C40.9091 18.9516 40.6936 19.4718 40.31 19.8554C39.9264 20.239 39.4061 20.4545 38.8636 20.4545C38.3211 20.4545 37.8009 20.239 37.4173 19.8554C37.0337 19.4718 36.8182 18.9516 36.8182 18.4091V12.2727H40.9091V18.4091ZM6.75 4.09091H38.8636C39.4061 4.09091 39.9264 3.87541 40.31 3.49181C40.6936 3.10821 40.9091 2.58794 40.9091 2.04545C40.9091 1.50297 40.6936 0.982697 40.31 0.5991C39.9264 0.215503 39.4061 0 38.8636 0H6.75C6.20751 0 5.68724 0.215503 5.30364 0.5991C4.92005 0.982697 4.70455 1.50297 4.70455 2.04545C4.70455 2.58794 4.92005 3.10821 5.30364 3.49181C5.68724 3.87541 6.20751 4.09091 6.75 4.09091Z" fill="#212E40"/>
</svg>
