<svg width="61" height="61" viewBox="0 0 61 61" fill="none" xmlns="http://www.w3.org/2000/svg">
<path d="M30.5003 5.0835C25.1426 5.08323 20.0013 7.19755 16.1939 10.9669C12.3865 14.7363 10.2206 19.8561 10.167 25.2135C10.167 39.1418 28.0857 54.646 28.8482 55.3068C29.3086 55.7006 29.8945 55.917 30.5003 55.917C31.1061 55.917 31.692 55.7006 32.1524 55.3068C33.042 54.646 50.8337 39.1418 50.8337 25.2135C50.7801 19.8561 48.6142 14.7363 44.8067 10.9669C40.9993 7.19755 35.858 5.08323 30.5003 5.0835ZM30.5003 49.9439C26.2557 45.9027 15.2503 34.6939 15.2503 25.2135C15.2503 21.1689 16.857 17.29 19.7169 14.4301C22.5769 11.5702 26.4558 9.9635 30.5003 9.9635C34.5449 9.9635 38.4238 11.5702 41.2837 14.4301C44.1436 17.29 45.7503 21.1689 45.7503 25.2135C45.7503 34.6177 34.7449 45.9027 30.5003 49.9439Z" fill="#212E40"/>
<path d="M30.5003 15.25C28.7409 15.25 27.021 15.7717 25.5581 16.7492C24.0952 17.7267 22.955 19.116 22.2817 20.7415C21.6083 22.367 21.4322 24.1557 21.7754 25.8813C22.1187 27.6069 22.9659 29.192 24.21 30.4361C25.4541 31.6802 27.0392 32.5275 28.7648 32.8707C30.4905 33.214 32.2791 33.0378 33.9046 32.3645C35.5301 31.6912 36.9195 30.551 37.8969 29.0881C38.8744 27.6252 39.3962 25.9053 39.3962 24.1458C39.3962 21.7865 38.4589 19.5238 36.7906 17.8555C35.1223 16.1872 32.8597 15.25 30.5003 15.25ZM30.5003 27.9583C29.7463 27.9583 29.0092 27.7347 28.3822 27.3158C27.7553 26.8969 27.2666 26.3015 26.978 25.6048C26.6895 24.9082 26.614 24.1416 26.7611 23.4021C26.9082 22.6625 27.2713 21.9832 27.8045 21.45C28.3377 20.9168 29.017 20.5537 29.7565 20.4066C30.4961 20.2595 31.2627 20.335 31.9593 20.6235C32.656 20.9121 33.2514 21.4008 33.6703 22.0277C34.0892 22.6547 34.3128 23.3918 34.3128 24.1458C34.3128 25.157 33.9112 26.1267 33.1962 26.8417C32.4812 27.5567 31.5115 27.9583 30.5003 27.9583Z" fill="#212E40"/>
</svg>
