<svg width="22" height="41" viewBox="0 0 22 41" fill="none" xmlns="http://www.w3.org/2000/svg">
<path d="M1.04981 23.759L18.9273 6.51758L21.4302 8.93137L13.7428 16.3452L6.05551 23.759L21.4302 38.5865L18.9273 41.0003L1.04981 23.759Z" fill="#344A5E"/>
<path d="M1.04981 23.759L18.9273 6.51758L21.4302 8.93137L13.7428 16.3452L6.05551 23.759L21.4302 38.5865L18.9273 41.0003L1.04981 23.759Z" fill="#344A5E"/>
<path d="M18.9273 6.51758L1.04981 23.759L18.9273 41.0003L21.4302 38.5865L6.05551 23.759L13.7428 16.3452L21.4302 8.93137L18.9273 6.51758Z" fill="#344A5E"/>
<path d="M-0.00195086 17.7082L17.8756 0.466795L20.3784 2.88059L5.00375 17.7082L20.3784 32.5358L17.8756 34.9496L-0.00195086 17.7082Z" fill="white"/>
<path d="M-0.00195086 17.7082L17.8756 0.466795L20.3784 2.88059L5.00375 17.7082L20.3784 32.5358L17.8756 34.9496L-0.00195086 17.7082Z" fill="white"/>
<path d="M17.8756 0.466795L-0.00195086 17.7082L17.8756 34.9496L20.3784 32.5358L5.00375 17.7082L20.3784 2.88059L17.8756 0.466795Z" fill="white"/>
</svg>
