<svg width="22" height="41" viewBox="0 0 22 41" fill="none" xmlns="http://www.w3.org/2000/svg">
<path d="M20.3799 23.2922L2.50237 6.05078L-0.000480757 8.46457L7.68685 15.8784L15.3742 23.2922L-0.000482054 38.1197L2.50237 40.5335L20.3799 23.2922Z" fill="#344A5E"/>
<path d="M20.3799 23.2922L2.50237 6.05078L-0.000480757 8.46457L7.68685 15.8784L15.3742 23.2922L-0.000482054 38.1197L2.50237 40.5335L20.3799 23.2922Z" fill="#344A5E"/>
<path d="M2.50237 6.05078L20.3799 23.2922L2.50237 40.5335L-0.000482054 38.1197L15.3742 23.2922L7.68685 15.8784L-0.000480757 8.46457L2.50237 6.05078Z" fill="#344A5E"/>
<path d="M21.4316 17.2414L3.55413 -7.81451e-07L1.05128 2.41379L16.4259 17.2414L1.05128 32.069L3.55413 34.4828L21.4316 17.2414Z" fill="white"/>
<path d="M21.4316 17.2414L3.55413 -7.81451e-07L1.05128 2.41379L16.4259 17.2414L1.05128 32.069L3.55413 34.4828L21.4316 17.2414Z" fill="white"/>
<path d="M3.55413 -7.81451e-07L21.4316 17.2414L3.55413 34.4828L1.05128 32.069L16.4259 17.2414L1.05128 2.41379L3.55413 -7.81451e-07Z" fill="white"/>
</svg>
